<svg width="271" height="77" viewBox="0 0 271 77" fill="none"
	xmlns="http://www.w3.org/2000/svg">
	<path d="M252.784 19.84L242.16 45.248C241.861 45.9307 241.861 46.464 242.16 46.848C242.459 47.1893 242.907 47.36 243.504 47.36H268.848V53.184L263.408 54.144H236.464C235.269 54.144 234.245 53.824 233.392 53.184C232.539 52.5013 231.963 51.648 231.664 50.624C231.408 49.5573 231.515 48.4907 231.984 47.424L243.568 19.84H252.784ZM263.472 28.416V64H254.448V35.456L256.048 28.416H263.472Z" fill="#EFC56A"/>
	<path d="M224.792 19.84V60.48C224.792 62.8267 223.619 64 221.272 64H215.896C214.829 64 214.019 63.7653 213.464 63.296C212.909 62.784 212.397 62.0373 211.928 61.056L199.704 37.888C199.192 36.9067 198.68 35.8187 198.168 34.624C197.699 33.4293 197.293 32.2773 196.952 31.168H196.248C196.376 32.32 196.483 33.4933 196.568 34.688C196.653 35.84 196.696 36.992 196.696 38.144V64H187.416V23.36C187.416 21.0133 188.611 19.84 191 19.84H196.312C197.336 19.84 198.104 20.096 198.616 20.608C199.171 21.0773 199.704 21.8027 200.216 22.784L212.056 45.248C212.568 46.2293 213.101 47.3173 213.656 48.512C214.211 49.7067 214.744 50.944 215.256 52.224H216.024C215.896 50.944 215.789 49.7067 215.704 48.512C215.661 47.2747 215.64 46.0587 215.64 44.864L215.576 19.84H224.792Z" fill="#EFC56A"/>
	<path d="M13.824 19.648C16.0853 19.648 18.3893 19.6693 20.736 19.712C23.1253 19.712 25.4507 19.776 27.712 19.904C30.016 19.9893 32.1493 20.1387 34.112 20.352L33.6 27.392H17.6C16.448 27.392 15.5733 27.6693 14.976 28.224C14.3787 28.7787 14.08 29.5893 14.08 30.656V64H4.288V28.672C4.288 25.9413 5.16267 23.7653 6.912 22.144C8.66133 20.48 10.9653 19.648 13.824 19.648ZM5.44 38.336H31.232V45.248H5.44V38.336ZM49.833 19.84V64H40.105V19.84H49.833ZM94.7605 19.84L82.7285 61.312C82.5152 62.08 82.0885 62.72 81.4485 63.232C80.8512 63.744 80.1258 64 79.2725 64H70.3125C69.4165 64 68.6485 63.744 68.0085 63.232C67.4112 62.72 67.0272 62.08 66.8565 61.312L54.7605 19.84H64.8725L72.9365 51.712C73.1072 52.5227 73.2778 53.3547 73.4485 54.208C73.6618 55.0187 73.8325 55.8293 73.9605 56.64H75.6245C75.7525 55.8293 75.9018 54.9973 76.0725 54.144C76.2858 53.2907 76.4992 52.4587 76.7125 51.648L84.7125 19.84H94.7605ZM108.754 19.648C111.143 19.648 113.554 19.6693 115.986 19.712C118.418 19.712 120.807 19.7547 123.154 19.84C125.501 19.9253 127.698 20.0747 129.746 20.288L129.298 27.392H112.338C111.271 27.392 110.461 27.6693 109.906 28.224C109.394 28.7787 109.138 29.5893 109.138 30.656V53.184C109.138 54.2507 109.394 55.0613 109.906 55.616C110.461 56.1707 111.271 56.448 112.338 56.448H129.298L129.746 63.552C127.698 63.7227 125.501 63.872 123.154 64C120.807 64.0853 118.418 64.128 115.986 64.128C113.554 64.1707 111.143 64.192 108.754 64.192C105.938 64.192 103.655 63.3813 101.906 61.76C100.199 60.096 99.346 57.9413 99.346 55.296V28.544C99.346 25.856 100.199 23.7013 101.906 22.08C103.655 20.4587 105.938 19.648 108.754 19.648ZM100.498 37.568H126.93V44.48H100.498V37.568Z" fill="#D56741"/>
	<circle cx="159.095" cy="42.0682" r="21.0417" fill="#EFC56A"/>
	<path d="M164.223 23.1594L162.43 24.1057L162.687 21.283L171.832 27.6635C169.69 25.6368 167.099 24.0803 164.223 23.1594ZM179.623 40.7291L165.51 53.3588L175.692 51.5799C177.204 48.7758 178.337 45.2853 178.34 41.8773L179.623 40.7291ZM164.584 54.0509L158.569 49.7717L149.857 49.5097L148.317 59.5174L152.117 61.1396C154.017 61.7414 156.041 62.066 158.14 62.066C160.026 62.066 161.851 61.804 163.58 61.3145L164.584 54.0509ZM147.034 58.5266L148.574 49.2531L146.777 41.2983L138.214 43.8644C138.923 51.6004 142.717 56.1722 146.777 58.491L147.034 58.5266ZM146.521 40.2719L140.315 33.2242C139.208 35.7029 138.214 39.2501 138.214 42.14C138.053 43.6078 137.647 40.7321 138.214 42.5814L146.521 40.2719ZM146.521 40.2719L152.849 34.4602L154.266 27.0467L150.089 23.9073C145.849 25.7824 142.385 29.0936 140.315 33.2242L146.521 40.2719ZM165.51 53.3588L178.34 41.8773L167.899 38.1482L160.743 40.7291L159.603 48.973L165.51 53.3588ZM167.516 37.1105L171.832 27.6635L162.687 21.283L162.43 24.1057L155.208 27.1684L153.791 34.582L160.36 39.6913L167.516 37.1105ZM158.14 20C170.368 20 180.28 29.9124 180.28 42.14C180.28 54.3676 170.368 64.28 158.14 64.28C145.912 64.28 136 54.3676 136 42.14C136 29.9124 145.912 20 158.14 20Z" fill="#338381"/>
</svg>
